<svg width="66" height="29" viewBox="0 0 66 29" fill="none" xmlns="http://www.w3.org/2000/svg">
<path fill-rule="evenodd" clip-rule="evenodd" d="M30.487 25.6999C30.0394 25.8427 29.5346 25.9142 28.9727 25.9142C28.3156 25.9142 27.737 25.8213 27.237 25.6356C26.737 25.4499 26.3203 25.1927 25.987 24.8642C25.6537 24.5356 25.4013 24.1499 25.2299 23.707C25.0584 23.2642 24.9727 22.7808 24.9727 22.257V21.8284H26.8584V22.1713C26.8584 22.7713 27.0323 23.2499 27.3799 23.607C27.7275 23.9642 28.268 24.1427 29.0013 24.1427C29.5727 24.1427 29.9965 24.0189 30.2727 23.7713C30.5489 23.5237 30.687 23.2284 30.687 22.8856C30.687 22.7237 30.6584 22.5689 30.6013 22.4213C30.5442 22.2737 30.4442 22.1404 30.3013 22.0213C30.1584 21.9023 29.9632 21.7951 29.7156 21.6999C29.468 21.6046 29.1537 21.5237 28.7727 21.457C28.268 21.3713 27.8061 21.2594 27.387 21.1213C26.968 20.9832 26.6037 20.7999 26.2942 20.5713C25.9846 20.3427 25.7442 20.057 25.5727 19.7142C25.4013 19.3713 25.3156 18.9523 25.3156 18.457V18.3713C25.3156 17.9618 25.3989 17.5832 25.5656 17.2356C25.7323 16.888 25.9656 16.5856 26.2656 16.3284C26.5656 16.0713 26.9275 15.8713 27.3513 15.7284C27.7751 15.5856 28.2489 15.5142 28.7727 15.5142C29.3632 15.5142 29.887 15.5975 30.3442 15.7642C30.8013 15.9308 31.1846 16.157 31.4942 16.4427C31.8037 16.7284 32.037 17.057 32.1942 17.4284C32.3513 17.7999 32.4299 18.1904 32.4299 18.5999V19.1142H30.5442V18.7713C30.5442 18.3713 30.3894 18.0237 30.0799 17.7284C29.7703 17.4332 29.3346 17.2856 28.7727 17.2856C28.2965 17.2856 27.9203 17.3832 27.6442 17.5784C27.368 17.7737 27.2299 18.038 27.2299 18.3713C27.2299 18.5427 27.2632 18.6975 27.3299 18.8356C27.3965 18.9737 27.5132 19.0975 27.6799 19.207C27.8465 19.3165 28.0656 19.4142 28.337 19.4999C28.6084 19.5856 28.9537 19.6665 29.3727 19.7427C30.4203 19.9332 31.2203 20.2523 31.7727 20.6999C32.3251 21.1475 32.6013 21.8094 32.6013 22.6856V22.857C32.6013 23.3237 32.518 23.7451 32.3513 24.1213C32.1846 24.4975 31.9442 24.8189 31.6299 25.0856C31.3156 25.3523 30.9346 25.557 30.487 25.6999ZM2.32885 25.7142L2.81456 23.5713H6.21456L6.70028 25.7142H8.67171L6.28599 15.7142H2.74314L0.357422 25.7142H2.32885ZM5.80028 21.7713H3.21456L4.38599 16.657H4.64314L5.80028 21.7713ZM10.7911 24.6856V28.5713H8.9911V18.6284H10.7911V19.657H11.0482C11.2387 19.2665 11.5149 18.9642 11.8768 18.7499C12.2387 18.5356 12.7006 18.4284 13.2625 18.4284C13.6816 18.4284 14.0792 18.5094 14.4554 18.6713C14.8316 18.8332 15.1601 19.0689 15.4411 19.3784C15.722 19.688 15.9459 20.0665 16.1125 20.5142C16.2792 20.9618 16.3625 21.4713 16.3625 22.0427V22.2999C16.3625 22.8808 16.2816 23.3951 16.1197 23.8427C15.9578 24.2904 15.7387 24.6689 15.4625 24.9784C15.1863 25.288 14.8601 25.5213 14.484 25.6784C14.1078 25.8356 13.7006 25.9142 13.2625 25.9142C12.9387 25.9142 12.6578 25.8808 12.4197 25.8142C12.1816 25.7475 11.9744 25.657 11.7982 25.5427C11.622 25.4284 11.4744 25.2975 11.3554 25.1499C11.2363 25.0023 11.134 24.8475 11.0482 24.6856H10.7911ZM12.6768 24.1999C12.1149 24.1999 11.6601 24.0213 11.3125 23.6642C10.9649 23.307 10.7911 22.838 10.7911 22.257V22.0856C10.7911 21.5046 10.9649 21.0356 11.3125 20.6784C11.6601 20.3213 12.1149 20.1427 12.6768 20.1427C13.2387 20.1427 13.6935 20.3165 14.0411 20.6642C14.3887 21.0118 14.5625 21.4856 14.5625 22.0856V22.257C14.5625 22.857 14.3887 23.3308 14.0411 23.6784C13.6935 24.0261 13.2387 24.1999 12.6768 24.1999ZM18.8962 24.6856V28.5713H17.0962V18.6284H18.8962V19.657H19.1533C19.3438 19.2665 19.62 18.9642 19.9819 18.7499C20.3438 18.5356 20.8057 18.4284 21.3676 18.4284C21.7867 18.4284 22.1843 18.5094 22.5605 18.6713C22.9367 18.8332 23.2652 19.0689 23.5462 19.3784C23.8271 19.688 24.051 20.0665 24.2176 20.5142C24.3843 20.9618 24.4676 21.4713 24.4676 22.0427V22.2999C24.4676 22.8808 24.3867 23.3951 24.2248 23.8427C24.0629 24.2904 23.8438 24.6689 23.5676 24.9784C23.2914 25.288 22.9652 25.5213 22.5891 25.6784C22.2129 25.8356 21.8057 25.9142 21.3676 25.9142C21.0438 25.9142 20.7629 25.8808 20.5248 25.8142C20.2867 25.7475 20.0795 25.657 19.9033 25.5427C19.7271 25.4284 19.5795 25.2975 19.4605 25.1499C19.3414 25.0023 19.2391 24.8475 19.1533 24.6856H18.8962ZM20.7819 24.1999C20.22 24.1999 19.7652 24.0213 19.4176 23.6642C19.07 23.307 18.8962 22.838 18.8962 22.257V22.0856C18.8962 21.5046 19.07 21.0356 19.4176 20.6784C19.7652 20.3213 20.22 20.1427 20.7819 20.1427C21.3438 20.1427 21.7986 20.3165 22.1462 20.6642C22.4938 21.0118 22.6676 21.4856 22.6676 22.0856V22.257C22.6676 22.857 22.4938 23.3308 22.1462 23.6784C21.7986 24.0261 21.3438 24.1999 20.7819 24.1999ZM39.6778 25.7142V23.9999H37.7635C37.5064 23.9999 37.3778 23.857 37.3778 23.5713V20.3427H39.935V18.6284H37.3778V15.7142H35.5778V18.6284H33.4778V20.3427H35.5778V24.5999C35.5778 24.9237 35.6802 25.1904 35.885 25.3999C36.0897 25.6094 36.354 25.7142 36.6778 25.7142H39.6778ZM46.4329 25.6713C45.9901 25.8332 45.5258 25.9142 45.0401 25.9142C44.5544 25.9142 44.0901 25.8332 43.6472 25.6713C43.2044 25.5094 42.8115 25.2737 42.4686 24.9642C42.1258 24.6546 41.8544 24.2737 41.6544 23.8213C41.4544 23.3689 41.3544 22.8475 41.3544 22.257V22.0856C41.3544 21.5046 41.4544 20.988 41.6544 20.5356C41.8544 20.0832 42.1258 19.6999 42.4686 19.3856C42.8115 19.0713 43.2044 18.8332 43.6472 18.6713C44.0901 18.5094 44.5544 18.4284 45.0401 18.4284C45.5258 18.4284 45.9901 18.5094 46.4329 18.6713C46.8758 18.8332 47.2687 19.0713 47.6115 19.3856C47.9544 19.6999 48.2258 20.0832 48.4258 20.5356C48.6258 20.988 48.7258 21.5046 48.7258 22.0856V22.257C48.7258 22.8475 48.6258 23.3689 48.4258 23.8213C48.2258 24.2737 47.9544 24.6546 47.6115 24.9642C47.2687 25.2737 46.8758 25.5094 46.4329 25.6713ZM45.0401 24.1999C44.7829 24.1999 44.5401 24.157 44.3115 24.0713C44.0829 23.9856 43.8829 23.8618 43.7115 23.6999C43.5401 23.538 43.4044 23.3404 43.3044 23.107C43.2044 22.8737 43.1544 22.6094 43.1544 22.3142V22.0284C43.1544 21.7332 43.2044 21.4689 43.3044 21.2356C43.4044 21.0023 43.5401 20.8046 43.7115 20.6427C43.8829 20.4808 44.0829 20.357 44.3115 20.2713C44.5401 20.1856 44.7829 20.1427 45.0401 20.1427C45.2972 20.1427 45.5401 20.1856 45.7686 20.2713C45.9972 20.357 46.1972 20.4808 46.3686 20.6427C46.5401 20.8046 46.6758 21.0023 46.7758 21.2356C46.8758 21.4689 46.9258 21.7332 46.9258 22.0284V22.3142C46.9258 22.6094 46.8758 22.8737 46.7758 23.107C46.6758 23.3404 46.5401 23.538 46.3686 23.6999C46.1972 23.8618 45.9972 23.9856 45.7686 24.0713C45.5401 24.157 45.2972 24.1999 45.0401 24.1999ZM54.2595 23.9999V25.7142H49.3737V23.9999H50.8309V20.3427H49.5452V18.6284H52.5452V19.657H52.8023C52.9357 19.2665 53.1618 18.9642 53.4809 18.7499C53.7999 18.5356 54.1833 18.4284 54.6309 18.4284C55.3357 18.4284 55.9023 18.6499 56.3309 19.0927C56.7595 19.5356 56.9737 20.2094 56.9737 21.1142V21.4284L55.1166 21.5999V21.3999C55.1166 21.0094 55.0166 20.6975 54.8166 20.4642C54.6166 20.2308 54.3166 20.1142 53.9166 20.1142C53.5166 20.1142 53.2023 20.2523 52.9737 20.5284C52.7452 20.8046 52.6309 21.1999 52.6309 21.7142V23.9999H54.2595ZM61.3217 25.9142C61.7884 25.9142 62.1955 25.8618 62.5431 25.757C62.8908 25.6523 63.186 25.5189 63.4288 25.357C63.6717 25.1951 63.8693 25.0165 64.0217 24.8213C64.1741 24.6261 64.2931 24.438 64.3788 24.257L62.836 23.3999C62.7312 23.6189 62.5598 23.807 62.3217 23.9642C62.0836 24.1213 61.7408 24.1999 61.2931 24.1999C61.0646 24.1999 60.8479 24.1642 60.6431 24.0927C60.4384 24.0213 60.2574 23.9213 60.1003 23.7927C59.9431 23.6642 59.8193 23.5118 59.7288 23.3356C59.6384 23.1594 59.5884 22.9665 59.5788 22.757H64.7788V21.7999C64.7788 21.4284 64.7122 21.0451 64.5788 20.6499C64.4455 20.2546 64.236 19.8927 63.9503 19.5642C63.6646 19.2356 63.3027 18.9642 62.8646 18.7499C62.4265 18.5356 61.9027 18.4284 61.2931 18.4284C60.7979 18.4284 60.3336 18.5165 59.9003 18.6927C59.4669 18.8689 59.0884 19.1142 58.7646 19.4284C58.4408 19.7427 58.186 20.1237 58.0003 20.5713C57.8146 21.0189 57.7217 21.5142 57.7217 22.057V22.1427C57.7217 22.7332 57.8098 23.2618 57.986 23.7284C58.1622 24.1951 58.4098 24.5904 58.7288 24.9142C59.0479 25.238 59.4265 25.4856 59.8646 25.657C60.3027 25.8284 60.7884 25.9142 61.3217 25.9142ZM59.6074 21.2142H62.9503C62.8931 20.8808 62.7146 20.6046 62.4146 20.3856C62.1146 20.1665 61.736 20.057 61.2789 20.057C60.8217 20.057 60.4503 20.1737 60.1646 20.407C59.8788 20.6404 59.6931 20.9094 59.6074 21.2142Z" fill="#495567"/>
<path fill-rule="evenodd" clip-rule="evenodd" d="M14.8255 4.60386C14.7422 4.63958 14.6553 4.65744 14.5648 4.65744C14.4696 4.65744 14.3815 4.63958 14.3005 4.60386C14.2196 4.56815 14.1481 4.52053 14.0862 4.46101C14.0243 4.40148 13.9755 4.33005 13.9398 4.24672C13.9041 4.16339 13.8862 4.0741 13.8862 3.97886C13.8862 3.88363 13.9041 3.79434 13.9398 3.71101C13.9755 3.62767 14.0243 3.55625 14.0862 3.49672C14.1481 3.4372 14.2196 3.38958 14.3005 3.35386C14.3815 3.31815 14.4696 3.30029 14.5648 3.30029C14.6553 3.30029 14.7422 3.31815 14.8255 3.35386C14.9088 3.38958 14.9815 3.4372 15.0434 3.49672C15.1053 3.55625 15.1541 3.62767 15.1898 3.71101C15.2255 3.79434 15.2434 3.88363 15.2434 3.97886C15.2434 4.0741 15.2255 4.16339 15.1898 4.24672C15.1541 4.33005 15.1053 4.40148 15.0434 4.46101C14.9815 4.52053 14.9088 4.56815 14.8255 4.60386ZM1.47857 7.50029L1.23571 8.57172H0.25L1.44286 3.57172H3.21429L4.40714 8.57172H3.42143L3.17857 7.50029H1.47857ZM1.67857 6.60029H2.97143L2.39286 4.04315H2.26429L1.67857 6.60029ZM7.23112 8.57172L8.24541 5.02886H7.27398L6.43827 8.14315H6.30969L5.47398 5.02886H4.50255L5.51684 8.57172H7.23112ZM10.698 8.53244C10.5265 8.62529 10.3265 8.67172 10.098 8.67172C9.88367 8.67172 9.68248 8.63125 9.49439 8.55029C9.30629 8.46934 9.14082 8.35029 8.99796 8.19315C8.8551 8.03601 8.74201 7.84553 8.65867 7.62172C8.57534 7.39791 8.53367 7.14315 8.53367 6.85744V6.74315C8.53367 6.4622 8.57415 6.20982 8.6551 5.98601C8.73605 5.7622 8.84558 5.57172 8.98367 5.41458C9.12177 5.25744 9.28248 5.1372 9.46582 5.05386C9.64915 4.97053 9.84558 4.92886 10.0551 4.92886C10.3075 4.92886 10.5111 4.97172 10.6658 5.05744C10.8206 5.14315 10.9432 5.27648 11.0337 5.45744H11.1622V5.02886H12.0622V7.50029C12.0622 7.64315 12.1265 7.71458 12.2551 7.71458H12.3908V8.57172H11.7765C11.6146 8.57172 11.4825 8.5241 11.3801 8.42886C11.2777 8.33363 11.2265 8.20982 11.2265 8.05744H11.098C11.0027 8.28125 10.8694 8.43958 10.698 8.53244ZM10.298 7.81458C10.0361 7.81458 9.82653 7.72767 9.66939 7.55386C9.51225 7.38005 9.43367 7.14315 9.43367 6.84315V6.75744C9.43367 6.45744 9.51225 6.22053 9.66939 6.04672C9.82653 5.87291 10.0361 5.78601 10.298 5.78601C10.5599 5.78601 10.7694 5.87291 10.9265 6.04672C11.0837 6.22053 11.1622 6.45744 11.1622 6.75744V6.84315C11.1622 7.14315 11.0837 7.38005 10.9265 7.55386C10.7694 7.72767 10.5599 7.81458 10.298 7.81458ZM16.0505 7.71458H15.0219V5.02886H13.0077V5.88601H14.1219V7.71458H12.9219V8.57172H16.0505V7.71458ZM19.0316 7.71458H20.1888V8.57172H16.8888V7.71458H18.1316V4.42886H16.9316V3.57172H19.0316V7.71458ZM22.2556 8.67172C22.4842 8.67172 22.6842 8.62529 22.8556 8.53244C23.027 8.43958 23.1604 8.28125 23.2556 8.05744H23.3842C23.3842 8.20982 23.4354 8.33363 23.5378 8.42886C23.6401 8.5241 23.7723 8.57172 23.9342 8.57172H24.5485V7.71458H24.4128C24.2842 7.71458 24.2199 7.64315 24.2199 7.50029V5.02886H23.3199V5.45744H23.1913C23.1008 5.27648 22.9782 5.14315 22.8235 5.05744C22.6687 4.97172 22.4651 4.92886 22.2128 4.92886C22.0032 4.92886 21.8068 4.97053 21.6235 5.05386C21.4401 5.1372 21.2794 5.25744 21.1413 5.41458C21.0032 5.57172 20.8937 5.7622 20.8128 5.98601C20.7318 6.20982 20.6913 6.4622 20.6913 6.74315V6.85744C20.6913 7.14315 20.733 7.39791 20.8163 7.62172C20.8997 7.84553 21.0128 8.03601 21.1556 8.19315C21.2985 8.35029 21.4639 8.46934 21.652 8.55029C21.8401 8.63125 22.0413 8.67172 22.2556 8.67172ZM21.827 7.55386C21.9842 7.72767 22.1937 7.81458 22.4556 7.81458C22.7175 7.81458 22.927 7.72767 23.0842 7.55386C23.2413 7.38005 23.3199 7.14315 23.3199 6.84315V6.75744C23.3199 6.45744 23.2413 6.22053 23.0842 6.04672C22.927 5.87291 22.7175 5.78601 22.4556 5.78601C22.1937 5.78601 21.9842 5.87291 21.827 6.04672C21.6699 6.22053 21.5913 6.45744 21.5913 6.75744V6.84315C21.5913 7.14315 21.6699 7.38005 21.827 7.55386ZM27.001 8.67172C27.2201 8.67172 27.4236 8.63244 27.6117 8.55386C27.7998 8.47529 27.9629 8.35863 28.101 8.20386C28.2391 8.0491 28.3486 7.85982 28.4296 7.63601C28.5105 7.4122 28.551 7.15506 28.551 6.86458V6.73601C28.551 6.45029 28.5094 6.19553 28.426 5.97172C28.3427 5.74791 28.2308 5.55863 28.0903 5.40386C27.9498 5.2491 27.7855 5.13125 27.5975 5.05029C27.4094 4.96934 27.2105 4.92886 27.001 4.92886C26.7201 4.92886 26.4891 4.98244 26.3082 5.08958C26.1272 5.19672 25.9891 5.34791 25.8939 5.54315H25.7653V3.57172H24.8653V8.57172H25.7653V8.05744H25.8939C25.9367 8.13839 25.9879 8.21577 26.0474 8.28958C26.107 8.36339 26.1808 8.42886 26.2689 8.48601C26.357 8.54315 26.4605 8.58839 26.5796 8.62172C26.6986 8.65506 26.8391 8.67172 27.001 8.67172ZM26.026 7.54672C26.1998 7.72529 26.4272 7.81458 26.7082 7.81458C26.9891 7.81458 27.2165 7.72767 27.3903 7.55386C27.5641 7.38005 27.651 7.14315 27.651 6.84315V6.75744C27.651 6.45744 27.5641 6.22053 27.3903 6.04672C27.2165 5.87291 26.9891 5.78601 26.7082 5.78601C26.4272 5.78601 26.1998 5.87529 26.026 6.05386C25.8522 6.23244 25.7653 6.46696 25.7653 6.75744V6.84315C25.7653 7.13363 25.8522 7.36815 26.026 7.54672ZM32.3464 7.71458H31.1893V3.57172H29.0893V4.42886H30.2893V7.71458H29.0464V8.57172H32.3464V7.71458ZM35.3954 8.59315C35.2216 8.64553 35.018 8.67172 34.7847 8.67172C34.518 8.67172 34.2752 8.62886 34.0561 8.54315C33.8371 8.45744 33.6478 8.33363 33.4883 8.17172C33.3287 8.00982 33.2049 7.8122 33.1168 7.57886C33.0287 7.34553 32.9847 7.08125 32.9847 6.78601V6.74315C32.9847 6.47172 33.0311 6.2241 33.124 6.00029C33.2168 5.77648 33.3442 5.58601 33.5061 5.42886C33.668 5.27172 33.8573 5.1491 34.074 5.06101C34.2906 4.97291 34.5228 4.92886 34.7704 4.92886C35.0752 4.92886 35.3371 4.98244 35.5561 5.08958C35.7752 5.19672 35.9561 5.33244 36.099 5.49672C36.2418 5.66101 36.3466 5.84196 36.4133 6.03958C36.4799 6.2372 36.5133 6.42886 36.5133 6.61458V7.09315H33.9133C33.918 7.19791 33.943 7.29434 33.9883 7.38244C34.0335 7.47053 34.0954 7.54672 34.174 7.61101C34.2526 7.67529 34.343 7.72529 34.4454 7.76101C34.5478 7.79672 34.6561 7.81458 34.7704 7.81458C34.9942 7.81458 35.1656 7.77529 35.2847 7.69672C35.4037 7.61815 35.4895 7.5241 35.5418 7.41458L36.3133 7.84315C36.2704 7.93363 36.2109 8.02767 36.1347 8.12529C36.0585 8.22291 35.9597 8.3122 35.8383 8.39315C35.7168 8.4741 35.5692 8.54077 35.3954 8.59315ZM35.599 6.32172H33.9276C33.9704 6.16934 34.0633 6.03482 34.2061 5.91815C34.349 5.80148 34.5347 5.74315 34.7633 5.74315C34.9918 5.74315 35.1811 5.79791 35.3311 5.90744C35.4811 6.01696 35.5704 6.15505 35.599 6.32172ZM43.5505 8.55029C43.3291 8.63125 43.0969 8.67172 42.8541 8.67172C42.6112 8.67172 42.3791 8.63125 42.1576 8.55029C41.9362 8.46934 41.7398 8.35148 41.5684 8.19672C41.3969 8.04196 41.2612 7.85148 41.1612 7.62529C41.0612 7.3991 41.0112 7.13839 41.0112 6.84315V6.75744C41.0112 6.46696 41.0612 6.20863 41.1612 5.98244C41.2612 5.75625 41.3969 5.56458 41.5684 5.40744C41.7398 5.25029 41.9362 5.13125 42.1576 5.05029C42.3791 4.96934 42.6112 4.92886 42.8541 4.92886C43.0969 4.92886 43.3291 4.96934 43.5505 5.05029C43.7719 5.13125 43.9684 5.25029 44.1398 5.40744C44.3112 5.56458 44.4469 5.75625 44.5469 5.98244C44.6469 6.20863 44.6969 6.46696 44.6969 6.75744V6.84315C44.6969 7.13839 44.6469 7.3991 44.5469 7.62529C44.4469 7.85148 44.3112 8.04196 44.1398 8.19672C43.9684 8.35148 43.7719 8.46934 43.5505 8.55029ZM42.8541 7.81458C42.7255 7.81458 42.6041 7.79315 42.4898 7.75029C42.3755 7.70744 42.2755 7.64553 42.1898 7.56458C42.1041 7.48363 42.0362 7.38482 41.9862 7.26815C41.9362 7.15148 41.9112 7.01934 41.9112 6.87172V6.72886C41.9112 6.58125 41.9362 6.4491 41.9862 6.33244C42.0362 6.21577 42.1041 6.11696 42.1898 6.03601C42.2755 5.95505 42.3755 5.89315 42.4898 5.85029C42.6041 5.80744 42.7255 5.78601 42.8541 5.78601C42.9827 5.78601 43.1041 5.80744 43.2184 5.85029C43.3327 5.89315 43.4327 5.95505 43.5184 6.03601C43.6041 6.11696 43.6719 6.21577 43.7219 6.33244C43.7719 6.4491 43.7969 6.58125 43.7969 6.72886V6.87172C43.7969 7.01934 43.7719 7.15148 43.7219 7.26815C43.6719 7.38482 43.6041 7.48363 43.5184 7.56458C43.4327 7.64553 43.3327 7.70744 43.2184 7.75029C43.1041 7.79315 42.9827 7.81458 42.8541 7.81458ZM46.1781 6.72886V8.57172H45.2781V5.02886H46.1781V5.55744H46.3066C46.3876 5.35744 46.5185 5.20267 46.6995 5.09315C46.8804 4.98363 47.0923 4.92886 47.3352 4.92886C47.5066 4.92886 47.6673 4.95625 47.8173 5.01101C47.9673 5.06577 48.0995 5.15029 48.2138 5.26458C48.3281 5.37886 48.4173 5.5241 48.4816 5.70029C48.5459 5.87648 48.5781 6.08601 48.5781 6.32886V8.57172H47.6781V6.55744C47.6781 6.30505 47.6173 6.10625 47.4959 5.96101C47.3745 5.81577 47.1995 5.74315 46.9709 5.74315C46.7043 5.74315 46.5054 5.83244 46.3745 6.01101C46.2435 6.18958 46.1781 6.42886 46.1781 6.72886ZM56.3832 7.71458H55.426C55.2975 7.71458 55.2332 7.64315 55.2332 7.50029V5.88601H56.5117V5.02886H55.2332V3.57172H54.3332V5.02886H53.2832V5.88601H54.3332V8.01458C54.3332 8.17648 54.3844 8.30982 54.4867 8.41458C54.5891 8.51934 54.7213 8.57172 54.8832 8.57172H56.3832V7.71458ZM58.35 6.72886V8.57172H57.45V3.57172H58.35V5.60029H58.4786C58.569 5.38601 58.7024 5.22053 58.8786 5.10386C59.0548 4.9872 59.2714 4.92886 59.5286 4.92886C59.7048 4.92886 59.8667 4.95744 60.0143 5.01458C60.1619 5.07172 60.2905 5.15744 60.4 5.27172C60.5095 5.38601 60.5952 5.53244 60.6571 5.71101C60.719 5.88958 60.75 6.10029 60.75 6.34315V8.57172H59.85V6.55744C59.85 6.30505 59.7893 6.10625 59.6679 5.96101C59.5464 5.81577 59.3714 5.74315 59.1429 5.74315C58.8762 5.74315 58.6774 5.83244 58.5464 6.01101C58.4155 6.18958 58.35 6.42886 58.35 6.72886ZM63.1525 8.67172C63.3859 8.67172 63.5895 8.64553 63.7633 8.59315C63.9371 8.54077 64.0847 8.4741 64.2061 8.39315C64.3276 8.3122 64.4264 8.22291 64.5025 8.12529C64.5787 8.02767 64.6383 7.93363 64.6811 7.84315L63.9097 7.41458C63.8573 7.5241 63.7716 7.61815 63.6525 7.69672C63.5335 7.77529 63.3621 7.81458 63.1383 7.81458C63.024 7.81458 62.9156 7.79672 62.8133 7.76101C62.7109 7.72529 62.6204 7.67529 62.5418 7.61101C62.4633 7.54672 62.4014 7.47053 62.3561 7.38244C62.3109 7.29434 62.2859 7.19791 62.2811 7.09315H64.8811V6.61458C64.8811 6.42886 64.8478 6.2372 64.7811 6.03958C64.7145 5.84196 64.6097 5.66101 64.4668 5.49672C64.324 5.33244 64.143 5.19672 63.924 5.08958C63.7049 4.98244 63.443 4.92886 63.1383 4.92886C62.8906 4.92886 62.6585 4.97291 62.4418 5.06101C62.2252 5.1491 62.0359 5.27172 61.874 5.42886C61.7121 5.58601 61.5847 5.77648 61.4918 6.00029C61.399 6.2241 61.3526 6.47172 61.3526 6.74315V6.78601C61.3526 7.08125 61.3966 7.34553 61.4847 7.57886C61.5728 7.8122 61.6966 8.00982 61.8561 8.17172C62.0156 8.33363 62.2049 8.45744 62.424 8.54315C62.643 8.62886 62.8859 8.67172 63.1525 8.67172ZM62.2954 6.32172H63.9668C63.9383 6.15505 63.849 6.01696 63.699 5.90744C63.549 5.79791 63.3597 5.74315 63.1311 5.74315C62.9025 5.74315 62.7168 5.80148 62.574 5.91815C62.4311 6.03482 62.3383 6.16934 62.2954 6.32172Z" fill="#495567"/>
</svg>
