<svg width="82" height="29" viewBox="0 0 82 29" fill="none" xmlns="http://www.w3.org/2000/svg">
<path fill-rule="evenodd" clip-rule="evenodd" d="M5.94305 25.5356C5.61924 25.788 5.13353 25.9142 4.48591 25.9142C4.02877 25.9142 3.6002 25.8284 3.2002 25.657C2.8002 25.4856 2.45258 25.2308 2.15734 24.8927C1.8621 24.5546 1.62877 24.1356 1.45734 23.6356C1.28591 23.1356 1.2002 22.5523 1.2002 21.8856V19.5427C1.2002 18.8951 1.29305 18.3213 1.47877 17.8213C1.66448 17.3213 1.92162 16.8999 2.2502 16.557C2.57877 16.2142 2.97162 15.9546 3.42877 15.7784C3.88591 15.6023 4.39067 15.5142 4.94305 15.5142C5.51448 15.5142 6.024 15.607 6.47162 15.7927C6.91924 15.9784 7.3002 16.2356 7.61448 16.5642C7.92877 16.8927 8.16686 17.2784 8.32877 17.7213C8.49067 18.1642 8.57162 18.638 8.57162 19.1427V19.3142H6.68591V19.1427C6.68591 18.5427 6.53115 18.088 6.22162 17.7784C5.9121 17.4689 5.47639 17.3142 4.91448 17.3142C4.38115 17.3142 3.94305 17.4927 3.6002 17.8499C3.25734 18.207 3.08591 18.8189 3.08591 19.6856V21.7999C3.08591 23.3427 3.71448 24.1142 4.97162 24.1142C5.53353 24.1142 5.95972 23.9642 6.2502 23.6642C6.54067 23.3642 6.68591 22.9618 6.68591 22.457H4.28591V20.657H8.57162V25.7142H6.85734V24.5999H6.6002C6.48591 24.9713 6.26686 25.2832 5.94305 25.5356ZM14.441 25.6713C13.9982 25.8332 13.5339 25.9142 13.0482 25.9142C12.5624 25.9142 12.0982 25.8332 11.6553 25.6713C11.2124 25.5094 10.8196 25.2737 10.4767 24.9642C10.1339 24.6546 9.86244 24.2737 9.66244 23.8213C9.46244 23.3689 9.36244 22.8475 9.36244 22.257V22.0856C9.36244 21.5046 9.46244 20.988 9.66244 20.5356C9.86244 20.0832 10.1339 19.6999 10.4767 19.3856C10.8196 19.0713 11.2124 18.8332 11.6553 18.6713C12.0982 18.5094 12.5624 18.4284 13.0482 18.4284C13.5339 18.4284 13.9982 18.5094 14.441 18.6713C14.8839 18.8332 15.2767 19.0713 15.6196 19.3856C15.9624 19.6999 16.2339 20.0832 16.4339 20.5356C16.6339 20.988 16.7339 21.5046 16.7339 22.0856V22.257C16.7339 22.8475 16.6339 23.3689 16.4339 23.8213C16.2339 24.2737 15.9624 24.6546 15.6196 24.9642C15.2767 25.2737 14.8839 25.5094 14.441 25.6713ZM13.0482 24.1999C12.791 24.1999 12.5482 24.157 12.3196 24.0713C12.091 23.9856 11.891 23.8618 11.7196 23.6999C11.5482 23.538 11.4124 23.3404 11.3124 23.107C11.2124 22.8737 11.1624 22.6094 11.1624 22.3142V22.0284C11.1624 21.7332 11.2124 21.4689 11.3124 21.2356C11.4124 21.0023 11.5482 20.8046 11.7196 20.6427C11.891 20.4808 12.091 20.357 12.3196 20.2713C12.5482 20.1856 12.791 20.1427 13.0482 20.1427C13.3053 20.1427 13.5482 20.1856 13.7767 20.2713C14.0053 20.357 14.2053 20.4808 14.3767 20.6427C14.5482 20.8046 14.6839 21.0023 14.7839 21.2356C14.8839 21.4689 14.9339 21.7332 14.9339 22.0284V22.3142C14.9339 22.6094 14.8839 22.8737 14.7839 23.107C14.6839 23.3404 14.5482 23.538 14.3767 23.6999C14.2053 23.8618 14.0053 23.9856 13.7767 24.0713C13.5482 24.157 13.3053 24.1999 13.0482 24.1999ZM22.5461 25.6713C22.1033 25.8332 21.639 25.9142 21.1533 25.9142C20.6675 25.9142 20.2033 25.8332 19.7604 25.6713C19.3175 25.5094 18.9247 25.2737 18.5818 24.9642C18.239 24.6546 17.9675 24.2737 17.7675 23.8213C17.5675 23.3689 17.4675 22.8475 17.4675 22.257V22.0856C17.4675 21.5046 17.5675 20.988 17.7675 20.5356C17.9675 20.0832 18.239 19.6999 18.5818 19.3856C18.9247 19.0713 19.3175 18.8332 19.7604 18.6713C20.2033 18.5094 20.6675 18.4284 21.1533 18.4284C21.639 18.4284 22.1033 18.5094 22.5461 18.6713C22.989 18.8332 23.3818 19.0713 23.7247 19.3856C24.0675 19.6999 24.339 20.0832 24.539 20.5356C24.739 20.988 24.839 21.5046 24.839 22.0856V22.257C24.839 22.8475 24.739 23.3689 24.539 23.8213C24.339 24.2737 24.0675 24.6546 23.7247 24.9642C23.3818 25.2737 22.989 25.5094 22.5461 25.6713ZM21.1533 24.1999C20.8961 24.1999 20.6533 24.157 20.4247 24.0713C20.1961 23.9856 19.9961 23.8618 19.8247 23.6999C19.6533 23.538 19.5175 23.3404 19.4175 23.107C19.3175 22.8737 19.2675 22.6094 19.2675 22.3142V22.0284C19.2675 21.7332 19.3175 21.4689 19.4175 21.2356C19.5175 21.0023 19.6533 20.8046 19.8247 20.6427C19.9961 20.4808 20.1961 20.357 20.4247 20.2713C20.6533 20.1856 20.8961 20.1427 21.1533 20.1427C21.4104 20.1427 21.6533 20.1856 21.8818 20.2713C22.1104 20.357 22.3104 20.4808 22.4818 20.6427C22.6533 20.8046 22.789 21.0023 22.889 21.2356C22.989 21.4689 23.039 21.7332 23.039 22.0284V22.3142C23.039 22.6094 22.989 22.8737 22.889 23.107C22.789 23.3404 22.6533 23.538 22.4818 23.6999C22.3104 23.8618 22.1104 23.9856 21.8818 24.0713C21.6533 24.157 21.4104 24.1999 21.1533 24.1999ZM32.5512 28.257C32.3465 28.4665 32.0822 28.5713 31.7584 28.5713H26.9869V26.857H30.6726C30.9298 26.857 31.0584 26.7142 31.0584 26.4284V24.6856H30.8012C30.725 24.8475 30.6322 25.0023 30.5226 25.1499C30.4131 25.2975 30.2703 25.4284 30.0941 25.5427C29.9179 25.657 29.7084 25.7475 29.4655 25.8142C29.2226 25.8808 28.9298 25.9142 28.5869 25.9142C28.1488 25.9142 27.7417 25.8356 27.3655 25.6784C26.9893 25.5213 26.6607 25.288 26.3798 24.9784C26.0988 24.6689 25.8798 24.2904 25.7226 23.8427C25.5655 23.3951 25.4869 22.8808 25.4869 22.2999V22.0427C25.4869 21.4713 25.5703 20.9618 25.7369 20.5142C25.9036 20.0665 26.1322 19.688 26.4226 19.3784C26.7131 19.0689 27.0512 18.8332 27.4369 18.6713C27.8226 18.5094 28.2298 18.4284 28.6584 18.4284C29.2298 18.4284 29.6822 18.5356 30.0155 18.7499C30.3488 18.9642 30.6107 19.2665 30.8012 19.657H31.0584V18.6284H32.8584V27.457C32.8584 27.7808 32.756 28.0475 32.5512 28.257ZM29.1726 24.1999C28.6107 24.1999 28.156 24.0261 27.8084 23.6784C27.4607 23.3308 27.2869 22.857 27.2869 22.257V22.0856C27.2869 21.4856 27.4607 21.0118 27.8084 20.6642C28.156 20.3165 28.6107 20.1427 29.1726 20.1427C29.7345 20.1427 30.1893 20.3213 30.5369 20.6784C30.8845 21.0356 31.0584 21.5046 31.0584 22.0856V22.257C31.0584 22.838 30.8845 23.307 30.5369 23.6642C30.1893 24.0213 29.7345 24.1999 29.1726 24.1999ZM40.6635 23.9999V25.7142H34.0635V23.9999H36.5492V17.4284H34.1492V15.7142H38.3492V23.9999H40.6635ZM45.54 25.9142C46.0067 25.9142 46.4138 25.8618 46.7614 25.757C47.109 25.6523 47.4043 25.5189 47.6471 25.357C47.89 25.1951 48.0876 25.0165 48.24 24.8213C48.3924 24.6261 48.5114 24.438 48.5971 24.257L47.0543 23.3999C46.9495 23.6189 46.7781 23.807 46.54 23.9642C46.3019 24.1213 45.959 24.1999 45.5114 24.1999C45.2828 24.1999 45.0662 24.1642 44.8614 24.0927C44.6567 24.0213 44.4757 23.9213 44.3186 23.7927C44.1614 23.6642 44.0376 23.5118 43.9471 23.3356C43.8567 23.1594 43.8067 22.9665 43.7971 22.757H48.9971V21.7999C48.9971 21.4284 48.9305 21.0451 48.7971 20.6499C48.6638 20.2546 48.4543 19.8927 48.1686 19.5642C47.8828 19.2356 47.5209 18.9642 47.0828 18.7499C46.6448 18.5356 46.1209 18.4284 45.5114 18.4284C45.0162 18.4284 44.5519 18.5165 44.1186 18.6927C43.6852 18.8689 43.3067 19.1142 42.9828 19.4284C42.659 19.7427 42.4043 20.1237 42.2186 20.5713C42.0328 21.0189 41.94 21.5142 41.94 22.057V22.1427C41.94 22.7332 42.0281 23.2618 42.2043 23.7284C42.3805 24.1951 42.6281 24.5904 42.9471 24.9142C43.2662 25.238 43.6448 25.4856 44.0828 25.657C44.5209 25.8284 45.0067 25.9142 45.54 25.9142ZM43.8257 21.2142H47.1686C47.1114 20.8808 46.9328 20.6046 46.6329 20.3856C46.3328 20.1665 45.9543 20.057 45.4971 20.057C45.04 20.057 44.6686 20.1737 44.3829 20.407C44.0971 20.6404 43.9114 20.9094 43.8257 21.2142ZM52.1165 25.7142V21.9427H54.1451C54.6594 21.9427 55.107 21.857 55.488 21.6856C55.8689 21.5142 56.1856 21.288 56.438 21.007C56.6903 20.7261 56.8808 20.407 57.0094 20.0499C57.138 19.6927 57.2022 19.3284 57.2022 18.957V18.6142C57.2022 18.2523 57.138 17.8975 57.0094 17.5499C56.8808 17.2023 56.6903 16.8927 56.438 16.6213C56.1856 16.3499 55.8689 16.1308 55.488 15.9642C55.107 15.7975 54.6594 15.7142 54.1451 15.7142H50.2308V25.7142H52.1165ZM52.1165 20.1427H53.9594C54.3784 20.1427 54.7094 20.0284 54.9522 19.7999C55.1951 19.5713 55.3165 19.2761 55.3165 18.9142V18.7427C55.3165 18.3808 55.1951 18.0856 54.9522 17.857C54.7094 17.6284 54.3784 17.5142 53.9594 17.5142H52.1165V20.1427ZM64.9788 25.7142V23.9999H62.6645V15.7142H58.4645V17.4284H60.8645V23.9999H58.3788V25.7142H64.9788ZM70.3124 25.6356C69.9696 25.8213 69.5696 25.9142 69.1124 25.9142C68.6839 25.9142 68.2815 25.8332 67.9053 25.6713C67.5291 25.5094 67.1982 25.2713 66.9124 24.957C66.6267 24.6427 66.4005 24.2618 66.2339 23.8142C66.0672 23.3665 65.9839 22.857 65.9839 22.2856V22.057C65.9839 21.4951 66.0648 20.9904 66.2267 20.5427C66.3886 20.0951 66.6077 19.7142 66.8839 19.3999C67.1601 19.0856 67.4815 18.8451 67.8482 18.6784C68.2148 18.5118 68.6077 18.4284 69.0267 18.4284C69.5315 18.4284 69.9386 18.5142 70.2482 18.6856C70.5577 18.857 70.8029 19.1237 70.9839 19.4856H71.241V18.6284H73.041V23.5713C73.041 23.857 73.1696 23.9999 73.4267 23.9999H73.6982V25.7142H72.4696C72.1458 25.7142 71.8815 25.6189 71.6767 25.4284C71.472 25.238 71.3696 24.9904 71.3696 24.6856H71.1124C70.922 25.1332 70.6553 25.4499 70.3124 25.6356ZM69.5124 24.1999C68.9886 24.1999 68.5696 24.0261 68.2553 23.6784C67.941 23.3308 67.7839 22.857 67.7839 22.257V22.0856C67.7839 21.4856 67.941 21.0118 68.2553 20.6642C68.5696 20.3165 68.9886 20.1427 69.5124 20.1427C70.0362 20.1427 70.4553 20.3165 70.7696 20.6642C71.0839 21.0118 71.241 21.4856 71.241 22.0856V22.257C71.241 22.857 71.0839 23.3308 70.7696 23.6784C70.4553 24.0261 70.0362 24.1999 69.5124 24.1999ZM80.9247 28.257C80.7199 28.4665 80.4556 28.5713 80.1318 28.5713H75.9175V26.857H79.0461C79.3033 26.857 79.4318 26.7142 79.4318 26.4284V24.6856H79.1747C78.8604 25.5046 78.1842 25.9142 77.1461 25.9142C76.7937 25.9142 76.4652 25.857 76.1604 25.7427C75.8556 25.6284 75.589 25.4523 75.3604 25.2142C75.1318 24.9761 74.9533 24.6784 74.8247 24.3213C74.6961 23.9642 74.6318 23.5427 74.6318 23.057V18.6284H76.4318V22.6856C76.4318 23.1904 76.5509 23.5832 76.789 23.8642C77.0271 24.1451 77.3842 24.2856 77.8604 24.2856C78.4033 24.2856 78.8009 24.1118 79.0533 23.7642C79.3056 23.4165 79.4318 22.9427 79.4318 22.3427V18.6284H81.2318V27.457C81.2318 27.7808 81.1294 28.0475 80.9247 28.257Z" fill="#495567"/>
<path fill-rule="evenodd" clip-rule="evenodd" d="M19.0464 4.65744C19.1369 4.65744 19.2238 4.63958 19.3071 4.60386C19.3905 4.56815 19.4631 4.52053 19.525 4.46101C19.5869 4.40148 19.6357 4.33005 19.6714 4.24672C19.7071 4.16339 19.725 4.0741 19.725 3.97886C19.725 3.88363 19.7071 3.79434 19.6714 3.71101C19.6357 3.62767 19.5869 3.55625 19.525 3.49672C19.4631 3.4372 19.3905 3.38958 19.3071 3.35386C19.2238 3.31815 19.1369 3.30029 19.0464 3.30029C18.9512 3.30029 18.8631 3.31815 18.7821 3.35386C18.7012 3.38958 18.6298 3.4372 18.5679 3.49672C18.506 3.55625 18.4571 3.62767 18.4214 3.71101C18.3857 3.79434 18.3679 3.88363 18.3679 3.97886C18.3679 4.0741 18.3857 4.16339 18.4214 4.24672C18.4571 4.33005 18.506 4.40148 18.5679 4.46101C18.6298 4.52053 18.7012 4.56815 18.7821 4.60386C18.8631 4.63958 18.9512 4.65744 19.0464 4.65744ZM3.25766 8.48244C3.09575 8.60863 2.8529 8.67172 2.52909 8.67172C2.30052 8.67172 2.08623 8.62886 1.88623 8.54315C1.68623 8.45744 1.51242 8.33005 1.3648 8.16101C1.21718 7.99196 1.10052 7.78244 1.0148 7.53244C0.929088 7.28244 0.88623 6.99077 0.88623 6.65744V5.48601C0.88623 5.1622 0.932659 4.87529 1.02552 4.62529C1.11837 4.37529 1.24694 4.16458 1.41123 3.99315C1.57552 3.82172 1.77194 3.69196 2.00052 3.60386C2.22909 3.51577 2.48147 3.47172 2.75766 3.47172C3.04337 3.47172 3.29814 3.51815 3.52194 3.61101C3.74575 3.70386 3.93623 3.83244 4.09337 3.99672C4.25052 4.16101 4.36956 4.35386 4.45052 4.57529C4.53147 4.79672 4.57194 5.03363 4.57194 5.28601V5.37172H3.62909V5.28601C3.62909 4.98601 3.55171 4.75863 3.39694 4.60386C3.24218 4.4491 3.02433 4.37172 2.74337 4.37172C2.47671 4.37172 2.25766 4.46101 2.08623 4.63958C1.9148 4.81815 1.82909 5.1241 1.82909 5.55744V6.61458C1.82909 7.38601 2.14337 7.77172 2.77194 7.77172C3.0529 7.77172 3.26599 7.69672 3.41123 7.54672C3.55647 7.39672 3.62909 7.19553 3.62909 6.94315H2.42909V6.04315H4.57194V8.57172H3.7148V8.01458H3.58623C3.52909 8.20029 3.41956 8.35625 3.25766 8.48244ZM7.45664 8.59315C7.28283 8.64553 7.07926 8.67172 6.84592 8.67172C6.57926 8.67172 6.3364 8.62886 6.11735 8.54315C5.8983 8.45744 5.70902 8.33363 5.5495 8.17172C5.38997 8.00982 5.26616 7.8122 5.17807 7.57886C5.08997 7.34553 5.04592 7.08125 5.04592 6.78601V6.74315C5.04592 6.47172 5.09235 6.2241 5.18521 6.00029C5.27807 5.77648 5.40545 5.58601 5.56735 5.42886C5.72926 5.27172 5.91854 5.1491 6.13521 5.06101C6.35188 4.97291 6.58402 4.92886 6.83164 4.92886C7.1364 4.92886 7.3983 4.98244 7.61735 5.08958C7.8364 5.19672 8.01735 5.33244 8.16021 5.49672C8.30307 5.66101 8.40783 5.84196 8.4745 6.03958C8.54116 6.2372 8.5745 6.42886 8.5745 6.61458V7.09315H5.9745C5.97926 7.19791 6.00426 7.29434 6.0495 7.38244C6.09473 7.47053 6.15664 7.54672 6.23521 7.61101C6.31378 7.67529 6.40426 7.72529 6.50664 7.76101C6.60902 7.79672 6.71735 7.81458 6.83164 7.81458C7.05545 7.81458 7.22688 7.77529 7.34592 7.69672C7.46497 7.61815 7.55069 7.5241 7.60307 7.41458L8.3745 7.84315C8.33164 7.93363 8.27211 8.02767 8.19592 8.12529C8.11973 8.22291 8.02092 8.3122 7.8995 8.39315C7.77807 8.4741 7.63045 8.54077 7.45664 8.59315ZM7.66021 6.32172H5.98878C6.03164 6.16934 6.1245 6.03482 6.26735 5.91815C6.41021 5.80148 6.59592 5.74315 6.8245 5.74315C7.05307 5.74315 7.24235 5.79791 7.39235 5.90744C7.54235 6.01696 7.63164 6.15505 7.66021 6.32172ZM12.2342 7.71458V8.57172H10.7342C10.5723 8.57172 10.4401 8.51934 10.3378 8.41458C10.2354 8.30982 10.1842 8.17648 10.1842 8.01458V5.88601H9.13419V5.02886H10.1842V3.57172H11.0842V5.02886H12.3628V5.88601H11.0842V7.50029C11.0842 7.64315 11.1485 7.71458 11.277 7.71458H12.2342ZM20.5322 7.71458V8.57172H17.4036V7.71458H18.6036V5.88601H17.4893V5.02886H19.5036V7.71458H20.5322ZM24.3918 8.57172V7.71458H23.4347C23.3061 7.71458 23.2418 7.64315 23.2418 7.50029V5.88601H24.5204V5.02886H23.2418V3.57172H22.3418V5.02886H21.2918V5.88601H22.3418V8.01458C22.3418 8.17648 22.393 8.30982 22.4954 8.41458C22.5978 8.51934 22.7299 8.57172 22.8918 8.57172H24.3918ZM31.8219 8.55029C31.6005 8.63125 31.3684 8.67172 31.1255 8.67172C30.8827 8.67172 30.6505 8.63125 30.4291 8.55029C30.2077 8.46934 30.0112 8.35148 29.8398 8.19672C29.6684 8.04196 29.5327 7.85148 29.4327 7.62529C29.3327 7.3991 29.2827 7.13839 29.2827 6.84315V6.75744C29.2827 6.46696 29.3327 6.20863 29.4327 5.98244C29.5327 5.75625 29.6684 5.56458 29.8398 5.40744C30.0112 5.25029 30.2077 5.13125 30.4291 5.05029C30.6505 4.96934 30.8827 4.92886 31.1255 4.92886C31.3684 4.92886 31.6005 4.96934 31.8219 5.05029C32.0434 5.13125 32.2398 5.25029 32.4112 5.40744C32.5827 5.56458 32.7184 5.75625 32.8184 5.98244C32.9184 6.20863 32.9684 6.46696 32.9684 6.75744V6.84315C32.9684 7.13839 32.9184 7.3991 32.8184 7.62529C32.7184 7.85148 32.5827 8.04196 32.4112 8.19672C32.2398 8.35148 32.0434 8.46934 31.8219 8.55029ZM31.1255 7.81458C30.9969 7.81458 30.8755 7.79315 30.7612 7.75029C30.6469 7.70744 30.5469 7.64553 30.4612 7.56458C30.3755 7.48363 30.3077 7.38482 30.2577 7.26815C30.2077 7.15148 30.1827 7.01934 30.1827 6.87172V6.72886C30.1827 6.58125 30.2077 6.4491 30.2577 6.33244C30.3077 6.21577 30.3755 6.11696 30.4612 6.03601C30.5469 5.95505 30.6469 5.89315 30.7612 5.85029C30.8755 5.80744 30.9969 5.78601 31.1255 5.78601C31.2541 5.78601 31.3755 5.80744 31.4898 5.85029C31.6041 5.89315 31.7041 5.95505 31.7898 6.03601C31.8755 6.11696 31.9434 6.21577 31.9934 6.33244C32.0434 6.4491 32.0684 6.58125 32.0684 6.72886V6.87172C32.0684 7.01934 32.0434 7.15148 31.9934 7.26815C31.9434 7.38482 31.8755 7.48363 31.7898 7.56458C31.7041 7.64553 31.6041 7.70744 31.4898 7.75029C31.3755 7.79315 31.2541 7.81458 31.1255 7.81458ZM34.4495 6.72886V8.57172H33.5495V5.02886H34.4495V5.55744H34.5781C34.659 5.35744 34.79 5.20267 34.9709 5.09315C35.1519 4.98363 35.3638 4.92886 35.6066 4.92886C35.7781 4.92886 35.9388 4.95625 36.0888 5.01101C36.2388 5.06577 36.3709 5.15029 36.4852 5.26458C36.5995 5.37886 36.6888 5.5241 36.7531 5.70029C36.8174 5.87648 36.8495 6.08601 36.8495 6.32886V8.57172H35.9495V6.55744C35.9495 6.30505 35.8888 6.10625 35.7674 5.96101C35.6459 5.81577 35.4709 5.74315 35.2424 5.74315C34.9757 5.74315 34.7769 5.83244 34.6459 6.01101C34.515 6.18958 34.4495 6.42886 34.4495 6.72886Z" fill="#495567"/>
</svg>
